<svg width="21" height="20" viewBox="0 0 21 20" fill="none" xmlns="http://www.w3.org/2000/svg">
<path d="M12.6445 13.5714C12.834 13.5714 13.0157 13.6467 13.1496 13.7806C13.2836 13.9146 13.3588 14.0963 13.3588 14.2857C13.3588 14.4752 13.2836 14.6568 13.1496 14.7908C13.0157 14.9247 12.834 15 12.6445 15H8.35882C8.16938 15 7.9877 14.9247 7.85374 14.7908C7.71979 14.6568 7.64453 14.4752 7.64453 14.2857C7.64453 14.0963 7.71979 13.9146 7.85374 13.7806C7.9877 13.6467 8.16938 13.5714 8.35882 13.5714H12.6445ZM15.5017 9.28571C15.6911 9.28571 15.8728 9.36097 16.0068 9.49492C16.1407 9.62888 16.216 9.81056 16.216 10C16.216 10.1894 16.1407 10.3711 16.0068 10.5051C15.8728 10.639 15.6911 10.7143 15.5017 10.7143H5.50167C5.31223 10.7143 5.13055 10.639 4.9966 10.5051C4.86264 10.3711 4.78739 10.1894 4.78739 10C4.78739 9.81056 4.86264 9.62888 4.9966 9.49492C5.13055 9.36097 5.31223 9.28571 5.50167 9.28571H15.5017ZM17.6445 5C17.834 5 18.0157 5.07526 18.1496 5.20921C18.2836 5.34316 18.3588 5.52485 18.3588 5.71429C18.3588 5.90373 18.2836 6.08541 18.1496 6.21936C18.0157 6.35332 17.834 6.42857 17.6445 6.42857H3.35882C3.16938 6.42857 2.9877 6.35332 2.85374 6.21936C2.71979 6.08541 2.64453 5.90373 2.64453 5.71429C2.64453 5.52485 2.71979 5.34316 2.85374 5.20921C2.9877 5.07526 3.16938 5 3.35882 5H17.6445Z" fill="black"/>
</svg>
